<svg xmlns="http://www.w3.org/2000/svg" viewBox="0 0 50 50">
  <path d="M39.851563 2C38.367188 2 37.457031 3.359375 36.199219 5.242188C33.828125 8.78125 29.882813 14.621094 18.996094 14.96875L18.996094 30.027344C30.023438 30.324219 33.800781 36.417969 36.3125 40.488281C37.5625 42.527344 38.46875 44 40.074219 44C41.378906 44 43 44 43 23C43 2 41.027344 2 39.851563 2 Z M 7 15.003906C4.246094 15.003906 2.007813 17.246094 2.007813 20L2.007813 25C2.007813 27.753906 4.246094 29.996094 7 29.996094L17.003906 29.996094L17.003906 15.003906 Z M 44.976563 19.289063C44.992188 20.46875 45 21.699219 45 23C45 24.691406 44.988281 26.261719 44.96875 27.734375C46.722656 27.132813 47.953125 25.535156 47.953125 23.585938C47.953125 21.605469 46.707031 19.929688 44.976563 19.289063 Z M 6.636719 31.976563C7.765625 35.054688 8.832031 40.628906 9.605469 44.675781C9.761719 45.5 10.242188 48 13.445313 48L16.78125 48C19.441406 48 20 46.367188 20 45C20 43.222656 19 42.082031 17.839844 40.925781C17.566406 40.5 17.132813 38.121094 17.027344 31.996094L7 31.996094C6.878906 31.996094 6.757813 31.984375 6.636719 31.976563Z" fill="#FFFFFF" />
</svg>