<svg xmlns="http://www.w3.org/2000/svg" viewBox="0 0 50 50">
  <path d="M41.8125 6.96875C41.738281 6.976563 41.667969 6.984375 41.59375 7C40.855469 7.101563 40.234375 7.609375 39.984375 8.3125C39.734375 9.015625 39.898438 9.796875 40.40625 10.34375C43.878906 14.230469 46 19.347656 46 25C46 30.644531 43.894531 35.792969 40.40625 39.6875C39.851563 40.203125 39.636719 40.992188 39.851563 41.71875C40.066406 42.445313 40.671875 42.988281 41.417969 43.121094C42.164063 43.253906 42.921875 42.953125 43.375 42.34375C47.496094 37.742188 50 31.648438 50 25C50 18.351563 47.507813 12.28125 43.40625 7.6875C43.011719 7.214844 42.425781 6.953125 41.8125 6.96875 Z M 7.9375 7C7.417969 7.042969 6.933594 7.292969 6.59375 7.6875C2.492188 12.285156 0 18.371094 0 25C0 31.664063 2.503906 37.746094 6.625 42.34375C7.078125 42.953125 7.835938 43.253906 8.582031 43.121094C9.328125 42.988281 9.933594 42.445313 10.148438 41.71875C10.363281 40.992188 10.148438 40.203125 9.59375 39.6875C6.105469 35.796875 4 30.664063 4 25C4 19.371094 6.121094 14.234375 9.59375 10.34375C10.152344 9.734375 10.277344 8.84375 9.910156 8.105469C9.546875 7.363281 8.761719 6.925781 7.9375 7 Z M 34.65625 14.34375C34.582031 14.351563 34.511719 14.359375 34.4375 14.375C33.699219 14.476563 33.078125 14.984375 32.828125 15.6875C32.578125 16.390625 32.742188 17.171875 33.25 17.71875C34.964844 19.65625 36 22.183594 36 25C36 27.796875 34.960938 30.335938 33.25 32.28125C32.707031 32.804688 32.503906 33.589844 32.730469 34.3125C32.953125 35.03125 33.5625 35.566406 34.304688 35.691406C35.050781 35.816406 35.800781 35.515625 36.25 34.90625C38.578125 32.261719 40 28.789063 40 25C40 21.191406 38.589844 17.703125 36.25 15.0625C35.855469 14.589844 35.269531 14.328125 34.65625 14.34375 Z M 15.0625 14.40625C14.542969 14.449219 14.058594 14.699219 13.71875 15.09375C11.402344 17.734375 10 21.222656 10 25C10 28.847656 11.457031 32.378906 13.84375 35.03125C14.585938 35.851563 15.851563 35.914063 16.671875 35.171875C17.492188 34.429688 17.554688 33.164063 16.8125 32.34375C15.0625 30.398438 14 27.847656 14 25C14 22.210938 15.015625 19.691406 16.71875 17.75C17.277344 17.140625 17.402344 16.25 17.035156 15.511719C16.671875 14.769531 15.886719 14.332031 15.0625 14.40625 Z M 25 20C22.242188 20 20 22.242188 20 25C20 27.757813 22.242188 30 25 30C27.757813 30 30 27.757813 30 25C30 22.242188 27.757813 20 25 20Z" fill="#FFFFFF" />
</svg>