<svg xmlns="http://www.w3.org/2000/svg" viewBox="0 0 50 50">
  <path d="M2.8125 6C2.335938 6.089844 1.992188 6.511719 2 7L2 31C2 31.550781 2.449219 32 3 32L47 32C47.550781 32 48 31.550781 48 31L48 7C48 6.449219 47.550781 6 47 6L3 6C2.96875 6 2.9375 6 2.90625 6C2.875 6 2.84375 6 2.8125 6 Z M 4 8L10 8L10 30L4 30 Z M 40 8L46 8L46 30L40 30 Z M 25 11C28 11 30.40625 13.199219 30.90625 16L31 16C33.199219 16 35 17.800781 35 20C35 22.199219 33.199219 24 31 24C30.398438 24 30 23.601563 30 23C30 22.398438 30.398438 22 31 22C32.101563 22 33 21.101563 33 20C33 18.898438 32.101563 18 31 18L30 18C29.398438 18 29 17.601563 29 17C29 14.800781 27.199219 13 25 13C22.800781 13 21 14.800781 21 17C21 17.601563 20.601563 18 20 18L19 18C17.898438 18 17 18.898438 17 20C17 21.101563 17.898438 22 19 22C19.601563 22 20 22.398438 20 23C20 23.601563 19.601563 24 19 24C16.800781 24 15 22.199219 15 20C15 17.800781 16.800781 16 19 16L19.09375 16C19.59375 13.199219 22 11 25 11 Z M 2.8125 33C2.261719 33.050781 1.855469 33.542969 1.90625 34.09375C1.957031 34.644531 2.449219 35.050781 3 35C17.480469 35 27.652344 36.484375 34.1875 37.96875C40.722656 39.453125 43.5625 40.90625 43.5625 40.90625C43.875 41.058594 44.242188 41.039063 44.535156 40.851563C44.824219 40.667969 45.003906 40.347656 45 40L45 34C45.003906 33.640625 44.816406 33.304688 44.503906 33.121094C44.191406 32.941406 43.808594 32.941406 43.496094 33.121094C43.183594 33.304688 42.996094 33.640625 43 34L43 38.5C42.027344 38.097656 40.5 37.546875 38 36.875L38 33L4 33C3.660156 33 3.347656 33 3 33C2.96875 33 2.9375 33 2.90625 33C2.875 33 2.84375 33 2.8125 33 Z M 2.8125 36C2.261719 36.050781 1.855469 36.542969 1.90625 37.09375C1.957031 37.644531 2.449219 38.050781 3 38C16.324219 38 25.699219 40.484375 31.71875 42.9375C37.738281 45.390625 40.34375 47.75 40.34375 47.75C40.640625 48.007813 41.054688 48.066406 41.414063 47.90625C41.769531 47.746094 42 47.390625 42 47L42 42C42.003906 41.640625 41.816406 41.304688 41.503906 41.121094C41.191406 40.941406 40.808594 40.941406 40.496094 41.121094C40.183594 41.304688 39.996094 41.640625 40 42L40 45.0625C39.097656 44.421875 37.816406 43.582031 36 42.65625L36 40C26.199219 35.699219 4 36 4 36C3.664063 35.996094 3.339844 36 3 36C2.96875 36 2.9375 36 2.90625 36C2.875 36 2.84375 36 2.8125 36Z" fill="#FFFFFF" />
</svg>