<svg xmlns="http://www.w3.org/2000/svg" viewBox="0 0 50 50">
  <path d="M25 2C12.316406 2 2 12.316406 2 25C2 37.683594 12.316406 48 25 48C37.683594 48 48 37.683594 48 25C48 12.316406 37.683594 2 25 2 Z M 25 8C26.65625 8 28 9.34375 28 11C28 12.65625 26.65625 14 25 14C23.34375 14 22 12.65625 22 11C22 9.34375 23.34375 8 25 8 Z M 37.523438 18.523438L29 21.558594L29 29L31.535156 39.136719C31.769531 40.085938 31.054688 41 30.078125 41C29.433594 41 28.863281 40.585938 28.660156 39.976563L24.996094 29L21.339844 39.976563C21.136719 40.585938 20.566406 41 19.921875 41C18.945313 41 18.230469 40.085938 18.464844 39.136719L21 29L21 21.558594L12.476563 18.523438C11.65625 18.234375 11.21875 17.339844 11.496094 16.515625C11.773438 15.679688 12.679688 15.226563 13.515625 15.503906L21 18L29 18L36.484375 15.503906C37.320313 15.226563 38.226563 15.679688 38.503906 16.515625C38.78125 17.339844 38.34375 18.234375 37.523438 18.523438Z" fill="#FFFFFF" />
</svg>