<svg xmlns="http://www.w3.org/2000/svg" viewBox="0 0 50 50">
  <path d="M16 50C15.851563 50 15.703125 49.96875 15.566406 49.898438C15.113281 49.679688 14.894531 49.160156 15.050781 48.683594L22.613281 26L15 26C14.664063 26 14.355469 25.832031 14.167969 25.554688C13.980469 25.277344 13.949219 24.925781 14.078125 24.617188L24.078125 0.617188C24.230469 0.242188 24.597656 0 25 0L34.5 0C34.839844 0 35.15625 0.171875 35.339844 0.457031C35.523438 0.742188 35.550781 1.097656 35.414063 1.40625L27.542969 19L35 19C35.367188 19 35.703125 19.203125 35.878906 19.523438C36.054688 19.847656 36.039063 20.238281 35.835938 20.546875L16.835938 49.546875C16.644531 49.839844 16.328125 50 16 50Z" fill="#FFFFFF" />
</svg>