<svg xmlns="http://www.w3.org/2000/svg" viewBox="0 0 50 50">
  <path d="M12.980469 3C9.5784687 3.062 8.0649062 4.9141562 8.0039062 7.4101562C7.9799062 8.4031563 8.1444062 9.2261406 8.4414062 10.369141C8.2564062 10.483141 7.9513437 10.843469 8.0273438 11.480469C8.1703438 12.668469 8.6568437 12.968141 8.9648438 12.994141C9.0828438 14.102141 10.607 15.788141 11 15.994141C11 16.786141 11.029172 17.390812 10.951172 18.257812C10.067172 20.636813 2.913625 20.467125 2.015625 24.453125L2 24.984375C1.991 25.543375 2.442 26 3 26L6.4492188 26C7.3742187 23.544 9.6953594 22.06 12.943359 22L12.962891 22L12.980469 22C14.782469 22 15.869625 22.552719 16.515625 23.136719C17.297625 23.369719 17.962 23.780125 18.5 24.328125C18.281 23.892125 18.118016 23.36075 18.041016 22.71875C17.960016 22.04175 18.071156 21.453703 18.285156 20.970703C18.230156 20.723703 18.202109 20.494766 18.162109 20.259766C16.682109 19.711766 15.418078 19.167812 15.080078 18.257812L15.054688 18.257812C14.976688 17.391813 15.007812 16.785141 15.007812 15.994141C15.400813 15.788141 16.934734 14.102141 17.052734 12.994141C17.361734 12.969141 17.845281 12.669469 17.988281 11.480469C18.065281 10.842469 17.760219 10.482141 17.574219 10.369141C17.789219 9.7201406 17.985 8.7661563 18 7.5351562C18.019 5.8981562 17.422406 4.2203125 15.441406 3.9453125C15.084406 3.3173125 14.170469 3 12.980469 3 z M 36.980469 3C33.578469 3.062 32.062953 4.9141562 32.001953 7.4101562C31.977953 8.4031563 32.142453 9.2261406 32.439453 10.369141C32.254453 10.483141 31.949391 10.843469 32.025391 11.480469C32.168391 12.668469 32.654891 12.968141 32.962891 12.994141C33.080891 14.102141 34.605047 15.788141 34.998047 15.994141C34.998047 16.786141 35.027219 17.390812 34.949219 18.257812C34.610219 19.170813 33.346141 19.704187 31.869141 20.242188C31.831141 20.511187 31.788234 20.767141 31.740234 20.994141C31.947234 21.472141 32.053656 22.05275 31.972656 22.71875C31.906656 23.26475 31.771609 23.717281 31.599609 24.113281C32.805609 22.802281 34.641359 22.043953 36.943359 22.001953L36.960938 22.001953L36.978516 22.001953C38.780516 22.001953 39.869625 22.552719 40.515625 23.136719C41.956625 23.565719 43.006594 24.582953 43.558594 26.001953L47 26.001953C47.552 26.001953 48 25.553953 48 25.001953L48 24.4375C47.101 20.4505 39.965078 20.634859 39.080078 18.255859L39.052734 18.255859C38.974734 17.389859 39.005859 16.785141 39.005859 15.994141C39.398859 15.788141 40.932781 14.102141 41.050781 12.994141C41.359781 12.969141 41.843328 12.667516 41.986328 11.478516C42.063328 10.840516 41.758266 10.482141 41.572266 10.369141C41.789266 9.7211406 41.985 8.7661563 42 7.5351562C42.019 5.8981562 41.422406 4.2203125 39.441406 3.9453125C39.084406 3.3173125 38.169469 3 36.980469 3 z M 24.980469 14C21.578469 14.062 20.062953 15.914156 20.001953 18.410156C19.977953 19.403156 20.142453 20.226141 20.439453 21.369141C20.254453 21.483141 19.949391 21.843469 20.025391 22.480469C20.168391 23.668469 20.654891 23.968141 20.962891 23.994141C21.080891 25.102141 22.605047 26.788141 22.998047 26.994141C22.998047 27.786141 23.027219 28.390812 22.949219 29.257812C22.607219 30.177813 21.327938 30.716719 19.835938 31.261719C19.974937 31.684719 20.038656 32.16975 19.972656 32.71875C19.819656 33.99075 19.332469 34.834656 18.730469 35.347656C18.334469 36.304656 17.637047 37.230672 16.998047 37.888672C16.997047 38.112672 16.999766 38.325828 17.009766 38.548828C17.433766 38.860828 18.574469 39.269781 19.355469 39.550781C21.234469 40.225781 23.638719 41.094172 25.011719 42.951172C26.387719 41.103172 28.789016 40.233641 30.666016 39.556641C31.434016 39.279641 32.547188 38.879359 32.992188 38.568359C33.002187 38.336359 33.004906 38.115766 33.003906 37.884766C32.368906 37.226766 31.67525 36.303703 31.28125 35.345703C30.68025 34.832703 30.194016 33.987797 30.041016 32.716797C29.975016 32.164797 30.040641 31.676953 30.181641 31.251953C28.695641 30.709953 27.422078 30.173859 27.080078 29.255859L27.052734 29.255859C26.974734 28.389859 27.005859 27.785141 27.005859 26.994141C27.398859 26.788141 28.932781 25.102141 29.050781 23.994141C29.359781 23.969141 29.843328 23.667516 29.986328 22.478516C30.063328 21.840516 29.758266 21.482141 29.572266 21.369141C29.788266 20.721141 29.983047 19.767156 29.998047 18.535156C30.017047 16.898156 29.420453 15.218359 27.439453 14.943359C27.083453 14.316359 26.169469 14 24.980469 14 z M 12.980469 24C9.5784687 24.062 8.0629531 25.914156 8.0019531 28.410156C7.9779531 29.403156 8.1424531 30.226141 8.4394531 31.369141C8.2544531 31.483141 7.9493906 31.843469 8.0253906 32.480469C8.1683906 33.668469 8.6548906 33.968141 8.9628906 33.994141C9.0808906 35.102141 10.605047 36.788141 10.998047 36.994141C10.998047 37.786141 11.027219 38.390813 10.949219 39.257812C10.065219 41.636812 2.913625 41.466125 2.015625 45.453125L2 45.984375C1.991 46.543375 2.442 47 3 47L23 47C23.552 47 24 46.552 24 46L24 45.4375C23.101 41.4505 15.965078 41.634859 15.080078 39.255859L15.052734 39.255859C14.974734 38.389859 15.005859 37.785141 15.005859 36.994141C15.398859 36.788141 16.932781 35.102141 17.050781 33.994141C17.359781 33.969141 17.843328 33.667516 17.986328 32.478516C18.063328 31.840516 17.758266 31.482141 17.572266 31.369141C17.788266 30.721141 17.983047 29.767156 17.998047 28.535156C18.017047 26.898156 17.420453 25.218359 15.439453 24.943359C15.083453 24.316359 14.170469 24 12.980469 24 z M 36.980469 24C33.578469 24.062 32.062953 25.914156 32.001953 28.410156C31.977953 29.403156 32.142453 30.226141 32.439453 31.369141C32.254453 31.483141 31.949391 31.843469 32.025391 32.480469C32.168391 33.668469 32.654891 33.968141 32.962891 33.994141C33.080891 35.102141 34.605047 36.788141 34.998047 36.994141C34.998047 37.786141 35.027219 38.390813 34.949219 39.257812C34.065219 41.636812 26.913625 41.466125 26.015625 45.453125L26 46C25.991 46.558 26.442 47 27 47L47 47C47.552 47 48 46.552 48 46L48 45.4375C47.101 41.4505 39.965078 41.634859 39.080078 39.255859L39.052734 39.255859C38.974734 38.389859 39.005859 37.785141 39.005859 36.994141C39.398859 36.788141 40.932781 35.102141 41.050781 33.994141C41.359781 33.969141 41.843328 33.667516 41.986328 32.478516C42.063328 31.840516 41.758266 31.482141 41.572266 31.369141C41.788266 30.721141 41.983047 29.767156 41.998047 28.535156C42.017047 26.898156 41.420453 25.218359 39.439453 24.943359C39.083453 24.316359 38.169469 24 36.980469 24 z" fill="#FFFFFF" />
</svg>